<svg width="132" height="37" viewBox="0 0 132 37" fill="none" xmlns="http://www.w3.org/2000/svg">
<path d="M0.176136 36V30.75L1.16477 30.6989C2.50568 30.6193 3.56818 30.1364 4.35227 29.25C5.14773 28.3636 5.73295 26.9375 6.10795 24.9716C6.49432 23.0057 6.75 20.3693 6.875 17.0625L7.45455 1.09091H30.3295V36H24.142V6.28977H13.3523L12.8068 19.0227C12.6477 22.8409 12.2273 26.0057 11.5455 28.517C10.875 31.0284 9.77273 32.9034 8.23864 34.142C6.71591 35.3807 4.59659 36 1.88068 36H0.176136ZM68.4176 18.5455C68.4176 22.3068 67.7131 25.5284 66.304 28.2102C64.9063 30.8807 62.9972 32.9261 60.5767 34.3466C58.1676 35.767 55.4347 36.4773 52.3778 36.4773C49.321 36.4773 46.5824 35.767 44.1619 34.3466C41.7528 32.9148 39.8438 30.8636 38.4347 28.1932C37.0369 25.5114 36.3381 22.2955 36.3381 18.5455C36.3381 14.7841 37.0369 11.5682 38.4347 8.89773C39.8438 6.21591 41.7528 4.16477 44.1619 2.74432C46.5824 1.32386 49.321 0.613635 52.3778 0.613635C55.4347 0.613635 58.1676 1.32386 60.5767 2.74432C62.9972 4.16477 64.9063 6.21591 66.304 8.89773C67.7131 11.5682 68.4176 14.7841 68.4176 18.5455ZM62.0597 18.5455C62.0597 15.8977 61.6449 13.6648 60.8153 11.8466C59.9972 10.017 58.8608 8.63636 57.4062 7.70455C55.9517 6.76136 54.2756 6.28977 52.3778 6.28977C50.4801 6.28977 48.804 6.76136 47.3494 7.70455C45.8949 8.63636 44.7528 10.017 43.9233 11.8466C43.1051 13.6648 42.696 15.8977 42.696 18.5455C42.696 21.1932 43.1051 23.4318 43.9233 25.2614C44.7528 27.0795 45.8949 28.4602 47.3494 29.4034C48.804 30.3352 50.4801 30.8011 52.3778 30.8011C54.2756 30.8011 55.9517 30.3352 57.4062 29.4034C58.8608 28.4602 59.9972 27.0795 60.8153 25.2614C61.6449 23.4318 62.0597 21.1932 62.0597 18.5455ZM96.8452 1.09091V6.39205H80.7202V36H74.3963V1.09091H96.8452ZM131.839 18.5455C131.839 22.3068 131.135 25.5284 129.726 28.2102C128.328 30.8807 126.419 32.9261 123.999 34.3466C121.589 35.767 118.857 36.4773 115.8 36.4773C112.743 36.4773 110.004 35.767 107.584 34.3466C105.175 32.9148 103.266 30.8636 101.857 28.1932C100.459 25.5114 99.7599 22.2955 99.7599 18.5455C99.7599 14.7841 100.459 11.5682 101.857 8.89773C103.266 6.21591 105.175 4.16477 107.584 2.74432C110.004 1.32386 112.743 0.613635 115.8 0.613635C118.857 0.613635 121.589 1.32386 123.999 2.74432C126.419 4.16477 128.328 6.21591 129.726 8.89773C131.135 11.5682 131.839 14.7841 131.839 18.5455ZM125.482 18.5455C125.482 15.8977 125.067 13.6648 124.237 11.8466C123.419 10.017 122.283 8.63636 120.828 7.70455C119.374 6.76136 117.697 6.28977 115.8 6.28977C113.902 6.28977 112.226 6.76136 110.771 7.70455C109.317 8.63636 108.175 10.017 107.345 11.8466C106.527 13.6648 106.118 15.8977 106.118 18.5455C106.118 21.1932 106.527 23.4318 107.345 25.2614C108.175 27.0795 109.317 28.4602 110.771 29.4034C112.226 30.3352 113.902 30.8011 115.8 30.8011C117.697 30.8011 119.374 30.3352 120.828 29.4034C122.283 28.4602 123.419 27.0795 124.237 25.2614C125.067 23.4318 125.482 21.1932 125.482 18.5455Z" fill="black"/>
</svg>
