<svg width="702" height="391" viewBox="0 0 702 391" fill="none" xmlns="http://www.w3.org/2000/svg">
<path d="M570.555 33.6913C589.813 33.6914 607.405 37.7476 620.811 44.3417C634.233 50.9438 643.38 60.0469 645.908 70.0956L646.004 70.4775L646.398 70.4736C647.96 70.4565 649.528 70.4723 651.097 70.5283L652.667 70.5976C666.419 71.3282 678.659 75.1176 687.444 80.7021C696.24 86.2935 701.498 93.6273 701.498 101.439V118.098H329.89V112.611C329.89 102.8 337.062 93.7986 348.872 87.2206C360.665 80.6522 376.98 76.5683 395 76.5683H429.644L429.768 76.2499C432.354 69.6365 439.227 63.6004 448.696 59.2109C458.15 54.8286 470.12 52.123 482.778 52.123C490.515 52.123 497.871 53.0347 504.534 54.663L504.798 54.7275L504.995 54.5409C518.473 41.8712 543.277 33.6913 570.555 33.6913ZM570.552 44.6767C550.218 44.6767 531.651 50.9375 521.95 60.7304L521.496 61.1884L522.052 61.5136C531.133 66.8197 536.672 73.88 536.903 81.5556H516.405C516.17 76.4072 512.323 71.848 506.442 68.5722C500.354 65.1812 491.981 63.0966 482.775 63.0966C473.359 63.0967 464.984 65.5988 458.95 69.1952C452.951 72.7706 449.134 77.5164 449.134 82.0556V87.5419H394.999C384.63 87.5419 375.066 89.5328 367.476 92.8769C359.898 96.2159 354.231 100.931 351.755 106.419L351.436 107.125H680.502V106.625H680.997V101.44C680.997 96.2052 677.569 91.4374 672.123 87.8935C666.838 84.4545 659.586 82.1175 651.464 81.5673L650.675 81.5195C641.404 81.0239 632.505 82.5887 625.516 85.9501L624.846 86.2812C618.084 89.7055 613.973 94.6161 613.728 99.8896H593.228C593.469 92.0425 599.375 84.4199 609.793 78.8574L610.838 78.3144C615.186 76.1127 620.133 74.3444 625.448 73.0439L625.909 72.9316L625.82 72.4648C624.321 64.6046 617.568 57.6576 607.726 52.6904C597.868 47.7146 584.823 44.6767 570.552 44.6767Z" stroke="#23B20F" stroke-opacity="0.2"/>
<path d="M186.528 101.015C207.818 101.015 227.336 105.282 242.472 112.346C257.622 119.417 268.314 129.255 272.084 140.355L272.235 140.799L272.687 140.677C279.815 138.758 287.809 137.682 296.25 137.682C307.867 137.682 318.633 139.722 327.457 143.184L327.594 143.238L327.739 143.208C345.738 139.544 364.648 137.682 384.028 137.682C440.548 137.682 493.303 154.08 523.114 180.603L523.267 180.738L523.472 180.728C528.484 180.467 533.576 180.395 538.721 180.524L540.929 180.591C568.762 181.595 593.628 188.638 611.781 199.392C629.945 210.152 641.312 224.576 642.341 240.325L642.372 240.789L642.837 240.793C659.116 240.916 673.819 244.685 684.434 250.673C695.066 256.671 701.498 264.828 701.499 273.702V279.189H520.381L520.242 279.304C506.74 290.501 488.845 299.982 467.991 306.916L465.964 307.579C441.167 315.554 412.836 319.773 384.03 319.773C338.785 319.773 297.781 309.52 268.107 292.992C238.416 276.455 220.171 253.703 220.171 228.728C220.171 222.559 221.307 216.438 223.511 210.442L223.758 209.77H0.72623V192.06C0.72623 177.194 11.5896 163.608 29.36 153.71C47.1133 143.822 71.6579 137.683 98.7526 137.683C99.7401 137.683 100.738 137.694 101.754 137.714L102.082 137.721L102.218 137.423C107.018 126.94 118.024 117.834 132.909 111.344C147.782 104.86 166.468 101.015 186.528 101.015ZM384.027 148.654C370.154 148.654 356.561 149.746 343.459 151.901L342.473 152.063L343.194 152.754C346.193 155.635 348.343 158.796 349.472 162.134L349.579 162.449L349.91 162.473C368.653 163.814 385.263 168.955 397.172 176.434C409.09 183.919 416.219 193.689 416.219 204.28V209.767H244.718L244.59 210.071C242 216.148 240.664 222.402 240.664 228.726C240.664 250.927 256.872 270.954 282.811 285.402C308.767 299.859 344.571 308.798 384.027 308.798C427.254 308.798 467.023 298.27 494.069 280.1L495.431 279.185H296.972V273.698C296.972 264.751 303.512 256.533 314.303 250.523C325.077 244.522 339.986 240.789 356.454 240.789H366.901L367.026 240.473C369.427 234.377 375.55 228.967 384.122 225.076C392.414 221.313 402.939 218.999 414.423 218.858L415.537 218.851L432.145 218.858H432.403L432.552 218.647C444.717 201.504 470.034 188.697 500.771 183.29L501.874 183.096L500.994 182.405C474.256 161.4 430.554 148.654 384.027 148.654ZM539.577 191.541C519.218 190.804 499.793 193.951 483.923 199.993C468.312 205.938 456.089 214.705 449.844 225.386L449.551 225.896L447.331 229.837L415.533 229.825C407.568 229.826 400.322 231.63 395.049 234.567C389.794 237.494 386.396 241.616 386.396 246.278V251.764H356.454C347.649 251.764 339.508 253.408 332.969 256.185C326.441 258.957 321.458 262.882 319.053 267.481L318.997 267.59V268.213H319.497L678.972 268.214H679.798L679.416 267.483C677.011 262.884 672.028 258.958 665.5 256.186C658.961 253.409 650.82 251.765 642.015 251.765H621.92V242.672C621.92 229.062 612.77 216.682 597.965 207.526C583.383 198.506 563.239 192.559 540.654 191.583L539.577 191.541ZM186.526 111.987C169.97 111.987 154.617 115.433 142.848 121.181C131.279 126.832 123.091 134.751 120.736 143.883L120.629 144.32L119.321 149.851L109.073 149.087C105.103 148.792 101.823 148.655 98.7487 148.655C77.4428 148.655 58.0985 153.481 44.0631 161.298C30.0451 169.106 21.2195 179.965 21.2194 192.058V198.794H394.878L394.639 198.126C392.069 190.917 385.1 184.664 375.495 180.22C365.876 175.77 353.549 173.1 340.137 173.1H329.889V167.613C329.889 162.261 325.986 157.512 319.915 154.13C313.827 150.739 305.455 148.655 296.249 148.655C287.043 148.655 278.67 150.739 272.582 154.13C266.7 157.406 262.853 161.965 262.619 167.113H242.122C242.316 160.64 246.273 154.603 252.964 149.682L254.19 148.779H253.078C252.839 138.572 245.295 129.432 233.457 122.838C221.408 116.127 204.807 111.987 186.526 111.987Z" stroke="#23B20F" stroke-opacity="0.2"/>
<path d="M153.612 241.573C167.046 241.573 179.341 244.301 188.809 248.799C198.29 253.304 204.863 259.547 206.996 266.531L207.085 266.823L207.387 266.877C213.913 268.044 219.514 270.33 223.47 273.3C227.43 276.273 229.692 279.888 229.692 283.728V295.325H22.6691V289.839C22.6691 283.398 27.3796 277.452 35.216 273.087C43.0353 268.732 53.8644 266.019 65.8342 266.019H100.386L100.505 265.688C102.945 258.903 109.59 252.871 118.991 248.529C128.379 244.192 140.449 241.573 153.612 241.573ZM153.61 252.547C144.404 252.547 136.032 254.632 129.944 258.023C123.873 261.404 119.969 266.153 119.969 271.506V276.992H65.8332C57.4296 276.992 50.0121 279.582 46.0949 283.499L45.2414 284.353H208.696V283.853H209.195V283.728C209.194 281.745 207.753 280.052 205.655 278.884C203.541 277.706 200.654 276.992 197.498 276.992H187.25V271.506C187.25 266.153 183.347 261.404 177.277 258.023C171.188 254.632 162.816 252.547 153.61 252.547Z" stroke="#23B20F" stroke-opacity="0.2"/>
<path d="M296.151 327.704V338.677H176.771V327.704H296.151Z" stroke="#23B20F" stroke-opacity="0.2"/>
<path d="M350.611 339.677V350.65H297.153V339.677H350.611Z" stroke="#23B20F" stroke-opacity="0.2"/>
<path d="M261.757 358.036V369.009H99.3843V358.036H261.757Z" stroke="#23B20F" stroke-opacity="0.2"/>
<path d="M98.3848 229.524V240.497H0.5V229.524H98.3848Z" stroke="#23B20F" stroke-opacity="0.2"/>
<path d="M614.302 320.52V331.493H504.952V320.52H614.302Z" stroke="#23B20F" stroke-opacity="0.2"/>
<path d="M503.952 333.292V344.264H460.526V333.292H503.952Z" stroke="#23B20F" stroke-opacity="0.2"/>
<path d="M635.799 144.116V155.088H526.45V144.116H635.799Z" stroke="#23B20F" stroke-opacity="0.2"/>
<path d="M680.223 187.219V198.191H648.262V187.219H680.223Z" stroke="#23B20F" stroke-opacity="0.2"/>
<path d="M230.23 46.7356V57.7082H77.887V46.7356H230.23Z" stroke="#23B20F" stroke-opacity="0.2"/>
<path d="M405.07 21.9912V32.9638H252.727V21.9912H405.07Z" stroke="#23B20F" stroke-opacity="0.2"/>
<path d="M317.649 46.7356V57.7082H285.688V46.7356H317.649Z" stroke="#23B20F" stroke-opacity="0.2"/>
</svg>
