<svg width="512" height="512" viewBox="0 0 512 512" fill="none" xmlns="http://www.w3.org/2000/svg">
<mask id="path-1-inside-1_2143_336" fill="white">
<path d="M422.82 385.505V332.744L479.476 300.369V270.958C497.898 267.447 511.869 251.23 511.869 231.803C511.869 209.82 493.984 191.934 472 191.934C450.016 191.934 432.131 209.819 432.131 231.803C432.131 250.954 445.706 266.989 463.738 270.805V291.236L422.82 314.618V268.028L382.951 236.028V191.161C397.809 188.989 410.465 179.967 417.615 167.415C419.736 167.583 421.867 167.672 424 167.672C468.04 167.672 503.869 131.844 503.869 87.803C503.869 43.762 468.04 7.93401 424 7.93401C379.96 7.93401 344.131 43.762 344.131 87.803C344.131 94.078 344.872 100.268 346.304 106.301C335.245 115.077 328.131 128.621 328.131 143.803C328.131 167.196 345.002 186.71 367.213 190.849V243.577L407.082 275.577V385.508H311.607V324.189L332.365 310.35L323.636 297.256L311.607 305.275V287.934H295.869V385.508H203.628L220.365 374.35L211.636 361.256L198.296 370.149V327.672H217.126C234.078 327.672 247.87 313.881 247.87 296.928V46.677C247.87 29.724 234.079 15.933 217.126 15.933H166.876C149.924 15.933 136.132 29.725 136.132 46.677V103.802H151.87V46.677C151.87 38.402 158.602 31.671 166.876 31.671H217.126C225.401 31.671 232.132 38.403 232.132 46.677V296.927C232.132 305.202 225.4 311.933 217.126 311.933H198.296V274.152L213.007 251.724L199.847 243.092L182.559 269.451V280.05L172.366 273.254L163.637 286.348L182.559 298.963V311.932H166.877C158.602 311.932 151.871 305.2 151.871 296.926V279.801H136.133V296.926C136.133 313.879 149.924 327.67 166.877 327.67H182.559V368.049L172.366 361.253L163.637 374.347L180.374 385.505H111.215V279.35C156.301 275.665 191.871 237.821 191.871 191.801C191.871 143.35 152.453 103.932 104.002 103.932C55.551 103.932 16.133 143.35 16.133 191.801C16.133 205.446 19.312 218.893 25.356 231.014C14.96 238.217 8.133 250.225 8.133 263.801C8.133 282.999 21.773 299.068 39.871 302.834V324.968L95.478 349.059V385.505H0V401.243H512V385.505H422.82ZM447.869 231.803C447.869 218.497 458.693 207.672 472 207.672C485.307 207.672 496.131 218.497 496.131 231.803C496.131 245.109 485.307 255.934 472 255.934C458.693 255.934 447.869 245.109 447.869 231.803ZM424 23.672C459.362 23.672 488.131 52.441 488.131 87.803C488.131 123.165 459.361 151.934 424 151.934C423.722 151.934 423.446 151.914 423.168 151.911C423.62 149.273 423.869 146.568 423.869 143.803C423.869 117.408 402.395 95.934 376 95.934C370.668 95.934 365.544 96.824 360.75 98.439C360.167 94.943 359.869 91.391 359.869 87.802C359.869 52.441 388.638 23.672 424 23.672ZM343.869 143.803C343.869 126.085 358.283 111.672 376 111.672C393.717 111.672 408.131 126.086 408.131 143.803C408.131 161.52 393.717 175.934 376 175.934C358.282 175.934 343.869 161.52 343.869 143.803ZM23.869 263.803C23.869 250.497 34.693 239.672 48 239.672C61.307 239.672 72.131 250.497 72.131 263.803C72.131 277.109 61.307 287.934 48 287.934C34.693 287.934 23.869 277.109 23.869 263.803ZM95.475 331.909L55.606 314.636V302.934C69.344 300.268 80.586 290.533 85.374 277.675C88.703 278.394 92.074 278.917 95.474 279.246L95.475 331.909ZM95.475 263.432C92.899 263.129 90.347 262.689 87.825 262.112C86.935 240.91 69.415 223.934 47.999 223.934C45.203 223.934 42.474 224.227 39.84 224.777C34.621 214.629 31.868 203.306 31.868 191.803C31.868 152.03 64.226 119.672 103.999 119.672C143.772 119.672 176.13 152.03 176.13 191.803C176.13 229.141 147.611 259.942 111.212 263.572V236.451L132.363 222.35L123.634 209.256L111.212 217.537V199.803H95.475V263.432Z"/>
</mask>
<path d="M422.82 385.505V332.744L479.476 300.369V270.958C497.898 267.447 511.869 251.23 511.869 231.803C511.869 209.82 493.984 191.934 472 191.934C450.016 191.934 432.131 209.819 432.131 231.803C432.131 250.954 445.706 266.989 463.738 270.805V291.236L422.82 314.618V268.028L382.951 236.028V191.161C397.809 188.989 410.465 179.967 417.615 167.415C419.736 167.583 421.867 167.672 424 167.672C468.04 167.672 503.869 131.844 503.869 87.803C503.869 43.762 468.04 7.93401 424 7.93401C379.96 7.93401 344.131 43.762 344.131 87.803C344.131 94.078 344.872 100.268 346.304 106.301C335.245 115.077 328.131 128.621 328.131 143.803C328.131 167.196 345.002 186.71 367.213 190.849V243.577L407.082 275.577V385.508H311.607V324.189L332.365 310.35L323.636 297.256L311.607 305.275V287.934H295.869V385.508H203.628L220.365 374.35L211.636 361.256L198.296 370.149V327.672H217.126C234.078 327.672 247.87 313.881 247.87 296.928V46.677C247.87 29.724 234.079 15.933 217.126 15.933H166.876C149.924 15.933 136.132 29.725 136.132 46.677V103.802H151.87V46.677C151.87 38.402 158.602 31.671 166.876 31.671H217.126C225.401 31.671 232.132 38.403 232.132 46.677V296.927C232.132 305.202 225.4 311.933 217.126 311.933H198.296V274.152L213.007 251.724L199.847 243.092L182.559 269.451V280.05L172.366 273.254L163.637 286.348L182.559 298.963V311.932H166.877C158.602 311.932 151.871 305.2 151.871 296.926V279.801H136.133V296.926C136.133 313.879 149.924 327.67 166.877 327.67H182.559V368.049L172.366 361.253L163.637 374.347L180.374 385.505H111.215V279.35C156.301 275.665 191.871 237.821 191.871 191.801C191.871 143.35 152.453 103.932 104.002 103.932C55.551 103.932 16.133 143.35 16.133 191.801C16.133 205.446 19.312 218.893 25.356 231.014C14.96 238.217 8.133 250.225 8.133 263.801C8.133 282.999 21.773 299.068 39.871 302.834V324.968L95.478 349.059V385.505H0V401.243H512V385.505H422.82ZM447.869 231.803C447.869 218.497 458.693 207.672 472 207.672C485.307 207.672 496.131 218.497 496.131 231.803C496.131 245.109 485.307 255.934 472 255.934C458.693 255.934 447.869 245.109 447.869 231.803ZM424 23.672C459.362 23.672 488.131 52.441 488.131 87.803C488.131 123.165 459.361 151.934 424 151.934C423.722 151.934 423.446 151.914 423.168 151.911C423.62 149.273 423.869 146.568 423.869 143.803C423.869 117.408 402.395 95.934 376 95.934C370.668 95.934 365.544 96.824 360.75 98.439C360.167 94.943 359.869 91.391 359.869 87.802C359.869 52.441 388.638 23.672 424 23.672ZM343.869 143.803C343.869 126.085 358.283 111.672 376 111.672C393.717 111.672 408.131 126.086 408.131 143.803C408.131 161.52 393.717 175.934 376 175.934C358.282 175.934 343.869 161.52 343.869 143.803ZM23.869 263.803C23.869 250.497 34.693 239.672 48 239.672C61.307 239.672 72.131 250.497 72.131 263.803C72.131 277.109 61.307 287.934 48 287.934C34.693 287.934 23.869 277.109 23.869 263.803ZM95.475 331.909L55.606 314.636V302.934C69.344 300.268 80.586 290.533 85.374 277.675C88.703 278.394 92.074 278.917 95.474 279.246L95.475 331.909ZM95.475 263.432C92.899 263.129 90.347 262.689 87.825 262.112C86.935 240.91 69.415 223.934 47.999 223.934C45.203 223.934 42.474 224.227 39.84 224.777C34.621 214.629 31.868 203.306 31.868 191.803C31.868 152.03 64.226 119.672 103.999 119.672C143.772 119.672 176.13 152.03 176.13 191.803C176.13 229.141 147.611 259.942 111.212 263.572V236.451L132.363 222.35L123.634 209.256L111.212 217.537V199.803H95.475V263.432Z" stroke="#23B20F" stroke-opacity="0.2" stroke-width="2" mask="url(#path-1-inside-1_2143_336)"/>
<path d="M360.932 351.434H320.5V336.697H343.068L342.953 336.102L304.491 137.381H303.509L265.047 336.102L264.932 336.697H286.975V351.434H247.068L304 57.2858L360.932 351.434Z" stroke="#23B20F" stroke-opacity="0.2"/>
<path d="M422.32 183.518V246.518H407.582V183.518H422.32Z" stroke="#23B20F" stroke-opacity="0.2"/>
<path d="M69.7948 424.828V488.828H80.2382V463.648H94.9755V488.828H104.369V456.303H119.107V488.828H128.5V424.828H143.238V488.828H158.975V503.566H17.287V488.828H31.9755V448.959H46.7128V488.828H55.0565V424.828H69.7948Z" stroke="#23B20F" stroke-opacity="0.2"/>
<path d="M94.9763 416.437V455.306H80.238V416.437H94.9763Z" stroke="#23B20F" stroke-opacity="0.2"/>
<path d="M359.369 424.83V439.568H185.156V424.83H359.369Z" stroke="#23B20F" stroke-opacity="0.2"/>
<path d="M400.287 424.83V439.568H377.156V424.83H400.287Z" stroke="#23B20F" stroke-opacity="0.2"/>
<path d="M454.844 464.699V479.437H263.844V464.699H454.844Z" stroke="#23B20F" stroke-opacity="0.2"/>
</svg>
